<svg xmlns="http://www.w3.org/2000/svg" viewBox="0 0 169.46 168.01"><defs><style>.cls-1,.cls-2{fill:#f5f5f5;}.cls-1,.cls-3,.cls-4,.cls-5{stroke:#f5f5f5;stroke-miterlimit:10;}.cls-1{stroke-width:4.81px;}.cls-3,.cls-5{fill:none;}.cls-3{stroke-width:3.75px;}.cls-4{fill:#01497c;stroke-linecap:round;stroke-width:4px;}.cls-5{stroke-width:10px;}</style></defs><g id="Layer_2" data-name="Layer 2"><g id="Layer_1-2" data-name="Layer 1"><rect class="cls-1" x="116.13" y="-1.76" width="27" height="83.18" rx="3.68" transform="translate(66.13 -80) rotate(45)"/><path class="cls-2" d="M82.78,67.9c.53-2.14,2.24-2.61,3.8-1.06l14.59,14.6c1.56,1.55,1.08,3.26-1,3.79L80.88,90c-2.13.54-3.44-.77-2.91-2.91Z"/><path class="cls-3" d="M82.78,67.9c.53-2.14,2.24-2.61,3.8-1.06l14.59,14.6c1.56,1.55,1.08,3.26-1,3.79L80.88,90c-2.13.54-3.44-.77-2.91-2.91Z"/><line class="cls-4" x1="23" y1="46.01" x2="104" y2="46.01"/><line class="cls-4" x1="23" y1="64.01" x2="86" y2="64.01"/><line class="cls-4" x1="23" y1="82.01" x2="77" y2="82.01"/><line class="cls-4" x1="113" y1="82.01" x2="131" y2="82.01"/><line class="cls-4" x1="23" y1="100.01" x2="131" y2="100.01"/><line class="cls-4" x1="23" y1="118.01" x2="131" y2="118.01"/><line class="cls-4" x1="23" y1="136.01" x2="131" y2="136.01"/><rect class="cls-5" x="5" y="19.01" width="144" height="144" rx="12"/></g></g></svg>