<svg xmlns="http://www.w3.org/2000/svg" viewBox="0 0 151.11 147.58"><defs><style>.cls-1{fill:none;stroke:#f5f5f5;stroke-miterlimit:10;stroke-width:10px;}</style></defs><g id="Layer_2" data-name="Layer 2"><g id="Layer_1-2" data-name="Layer 1"><path class="cls-1" d="M74.25,6.11c.72-1.48,1.89-1.48,2.61,0L96.5,46.88A6.39,6.39,0,0,0,100.77,50l43.82,6.52c1.63.24,2,1.39.84,2.56l-31.75,31.7a6.55,6.55,0,0,0-1.63,5.08l7.51,44.83c.27,1.62-.7,2.32-2.15,1.53L78.2,121.14a6.27,6.27,0,0,0-5.29,0L33.7,142.25c-1.46.79-2.42.09-2.15-1.53l7.51-44.83a6.55,6.55,0,0,0-1.63-5.08L5.68,59.11c-1.17-1.17-.79-2.32.84-2.56L50.34,50a6.39,6.39,0,0,0,4.27-3.15Z"/></g></g></svg>